<svg width="606" height="769" viewBox="0 0 606 769" fill="none" xmlns="http://www.w3.org/2000/svg">
<rect y="49" width="606" height="720" rx="20" fill="url(#paint0_linear_482_6711)"/>
<g opacity="0.1">
<path d="M494 409C494 514.486 408.486 600 303 600C197.514 600 112 514.486 112 409C112 303.514 197.514 218 303 218C408.486 218 494 303.514 494 409Z" fill="#FFFFFA"/>
<path d="M348.165 481.703C337.206 500.684 322.437 511.637 303.856 514.562C286.709 517.316 268.3 513.014 248.63 501.658C228.544 490.061 215.258 475.731 208.774 458.667C201.674 440.36 203.747 421.467 214.994 401.987L218.527 395.868L266.66 423.657C262.622 430.65 260.776 437.409 261.12 443.935C261.448 451.45 264.905 457.109 271.489 460.91C283.741 467.984 293.352 465.485 300.321 453.414C303.493 447.92 303.939 442.239 301.659 436.372C300.761 434.077 299.363 431.494 297.465 428.622L294.849 424.781L279.339 404.005C274.139 397.229 269.921 390.964 266.686 385.211C262.822 378.43 260.044 371.886 258.35 365.581C254.53 350.832 256.537 336.673 264.371 323.104C274.032 306.371 288.94 296.718 309.094 294.147C327.553 291.817 345.45 295.657 362.786 305.666C372.538 311.296 380.863 318.433 387.763 327.079C395.22 336.49 399.847 346.376 401.644 356.738C403.903 370.918 400.885 385.77 392.59 401.293L344.707 373.648C349.987 360.268 347.751 350.764 337.999 345.134C326.914 338.734 318.512 340.487 312.792 350.393C310.774 353.89 309.819 356.891 309.929 359.396C309.971 363.749 313.457 371.09 320.385 381.417L335.197 401.956C340.372 409.162 344.452 415.569 347.437 421.177C351.086 427.946 353.615 434.345 355.023 440.375C358.333 454.274 356.047 468.05 348.165 481.703Z" fill="#515052"/>
</g>
<rect x="181" y="11" width="244" height="77" rx="20" fill="#ABABAB"/>
<defs>
<linearGradient id="paint0_linear_482_6711" x1="512.259" y1="709.656" x2="-74.3553" y2="193.832" gradientUnits="userSpaceOnUse">
<stop stop-color="#000103"/>
<stop offset="1" stop-color="#3E3E3E"/>
</linearGradient>
</defs>
</svg>
