<svg width="1280" height="720" viewBox="0 0 1280 720" fill="none" xmlns="http://www.w3.org/2000/svg">
<rect width="1280" height="720" fill="url(#paint0_linear_478_6673)"/>
<g opacity="0.5">
<path d="M831 360C831 465.486 745.486 551 640 551C534.514 551 449 465.486 449 360C449 254.514 534.514 169 640 169C745.486 169 831 254.514 831 360Z" fill="#FFFFFA"/>
<path d="M685.165 432.703C674.206 451.684 659.437 462.637 640.856 465.562C623.709 468.316 605.3 464.014 585.63 452.658C565.544 441.061 552.258 426.731 545.774 409.667C538.674 391.36 540.747 372.467 551.994 352.987L555.527 346.868L603.66 374.657C599.622 381.65 597.776 388.409 598.12 394.935C598.448 402.45 601.905 408.109 608.489 411.91C620.741 418.984 630.352 416.485 637.321 404.414C640.493 398.92 640.939 393.239 638.659 387.372C637.761 385.077 636.363 382.494 634.465 379.622L631.849 375.781L616.339 355.005C611.139 348.229 606.921 341.964 603.686 336.211C599.822 329.43 597.044 322.886 595.35 316.581C591.53 301.832 593.537 287.673 601.371 274.104C611.032 257.371 625.94 247.718 646.094 245.147C664.553 242.817 682.45 246.657 699.786 256.666C709.538 262.296 717.863 269.433 724.763 278.079C732.22 287.49 736.847 297.376 738.644 307.738C740.903 321.918 737.885 336.77 729.59 352.293L681.707 324.648C686.987 311.268 684.751 301.764 674.999 296.134C663.914 289.734 655.512 291.487 649.792 301.393C647.774 304.89 646.819 307.891 646.929 310.396C646.971 314.749 650.457 322.09 657.385 332.417L672.197 352.956C677.372 360.162 681.452 366.569 684.437 372.177C688.086 378.946 690.615 385.345 692.023 391.375C695.333 405.274 693.047 419.05 685.165 432.703Z" fill="#515052"/>
</g>
<defs>
<linearGradient id="paint0_linear_478_6673" x1="1082" y1="660.656" x2="588.227" y2="-256.436" gradientUnits="userSpaceOnUse">
<stop stop-color="#000103"/>
<stop offset="1" stop-color="#3E3E3E"/>
</linearGradient>
</defs>
</svg>
