<svg width="24" height="24" viewBox="0 0 24 24" fill="none" xmlns="http://www.w3.org/2000/svg">
<path d="M24 12C24 18.6274 18.6274 24 12 24C5.37258 24 0 18.6274 0 12C0 5.37258 5.37258 0 12 0C18.6274 0 24 5.37258 24 12Z" fill="#FFFFFA"/>
<path d="M14.8376 16.5677C14.1491 17.7602 13.2212 18.4484 12.0538 18.6322C10.9765 18.8052 9.81989 18.5349 8.58409 17.8214C7.32211 17.0928 6.48742 16.1925 6.08003 15.1205C5.63396 13.9703 5.76424 12.7833 6.47085 11.5594L6.6928 11.1749L9.71684 12.9209C9.46318 13.3602 9.34716 13.7849 9.36879 14.1949C9.38942 14.667 9.60657 15.0225 10.0203 15.2614C10.79 15.7058 11.3938 15.5488 11.8317 14.7904C12.031 14.4452 12.059 14.0883 11.9157 13.7197C11.8593 13.5755 11.7715 13.4132 11.6523 13.2328L11.4879 12.9915L10.5135 11.6862C10.1867 11.2605 9.92175 10.8669 9.7185 10.5054C9.47575 10.0794 9.30118 9.66824 9.19478 9.27207C8.95476 8.34547 9.08086 7.4559 9.57307 6.60336C10.18 5.55208 11.1166 4.94565 12.3829 4.78408C13.5426 4.63772 14.667 4.87895 15.7562 5.50779C16.3689 5.86151 16.8919 6.30995 17.3254 6.85311C17.7939 7.4444 18.0846 8.06553 18.1975 8.71651C18.3395 9.60741 18.1499 10.5405 17.6287 11.5158L14.6203 9.77892C14.9521 8.93832 14.8116 8.34117 14.1989 7.98745C13.5025 7.58535 12.9746 7.69551 12.6152 8.31791C12.4884 8.53759 12.4284 8.72612 12.4353 8.88351C12.438 9.15702 12.657 9.61819 13.0923 10.267L14.0229 11.5575C14.348 12.0102 14.6043 12.4127 14.7919 12.7651C15.0211 13.1903 15.18 13.5924 15.2685 13.9712C15.4764 14.8445 15.3328 15.71 14.8376 16.5677Z" fill="#515052"/>
</svg>
